# xmcd
#
# Track frame offsets: 
#        150
#        28587
#        58700
#        78650
#        95850
#        119650
#        160225
#        176162
#        192487
#        227587
#        256175
#        275187
#
# Disc length: 3930 seconds
#
# Revision: 1
# Processed by: cddbd v1.5.2PL0 Copyright (c) Steve Scherf et al.
# Submitted via: ExactAudioCopy v0.95a4
#
DISCID=b10f580c
DTITLE=Wiener Konzerthaus Quartett - Haydn Quartette CD 12
DYEAR=1900
DGENRE=Classical
TTITLE0=Op.76/4 (i)
TTITLE1=Op.76/4 (ii)
TTITLE2=Op.76/4 (iii)
TTITLE3=Op.76/4 (iv)
TTITLE4=Op.76/5 (i)
TTITLE5=Op.76/5 (ii)
TTITLE6=Op.76/5 (iii)
TTITLE7=Op.76/5 (iv)
TTITLE8=Op.76/6 (i)
TTITLE9=Op.76/6 (ii)
TTITLE10=Op.76/6 (iii)
TTITLE11=Op.76/6 (iv)
EXTD=
EXTT0=
EXTT1=
EXTT2=
EXTT3=
EXTT4=
EXTT5=
EXTT6=
EXTT7=
EXTT8=
EXTT9=
EXTT10=
EXTT11=
PLAYORDER=
